<?xml version="1.0" encoding="UTF-8" standalone="no"?>
<!-- Created with Inkscape (http://www.inkscape.org/) -->

<svg
   xmlns:dc="http://purl.org/dc/elements/1.1/"
   xmlns:cc="http://creativecommons.org/ns#"
   xmlns:rdf="http://www.w3.org/1999/02/22-rdf-syntax-ns#"
   xmlns:svg="http://www.w3.org/2000/svg"
   xmlns="http://www.w3.org/2000/svg"
   xmlns:sodipodi="http://sodipodi.sourceforge.net/DTD/sodipodi-0.dtd"
   xmlns:inkscape="http://www.inkscape.org/namespaces/inkscape"
   width="80"
   height="80"
   id="svg1901"
   sodipodi:version="0.32"
   inkscape:version="0.48.1 r9760"
   sodipodi:docname="nalle.svg"
   version="1.1"
   inkscape:export-filename="/home/niko/git/bobbytables/nalle-tausta.png"
   inkscape:export-xdpi="90"
   inkscape:export-ydpi="90">
  <defs
     id="defs1903">
    <filter
       id="filter4378"
       inkscape:label="suodin1"
       color-interpolation-filters="sRGB">
      <feGaussianBlur
         stdDeviation="2.4049700598802395"
         id="feGaussianBlur4380" />
    </filter>
    <filter
       inkscape:collect="always"
       id="filter4436"
       x="-0.11739243"
       width="1.2347849"
       y="-0.11331043"
       height="1.2266209">
      <feGaussianBlur
         inkscape:collect="always"
         stdDeviation="3.1280243"
         id="feGaussianBlur4438" />
    </filter>
  </defs>
  <sodipodi:namedview
     id="base"
     pagecolor="#ffffff"
     bordercolor="#666666"
     borderopacity="1.0"
     inkscape:pageopacity="0.0"
     inkscape:pageshadow="2"
     inkscape:zoom="5.275"
     inkscape:cx="40"
     inkscape:cy="40"
     inkscape:document-units="px"
     inkscape:current-layer="layer2"
     inkscape:window-width="1024"
     inkscape:window-height="576"
     inkscape:window-x="0"
     inkscape:window-y="24"
     showgrid="false"
     inkscape:window-maximized="1" />
  <metadata
     id="metadata1906">
    <rdf:RDF>
      <cc:Work
         rdf:about="">
        <dc:format>image/svg+xml</dc:format>
        <dc:type
           rdf:resource="http://purl.org/dc/dcmitype/StillImage" />
        <dc:title></dc:title>
      </cc:Work>
    </rdf:RDF>
  </metadata>
  <g
     inkscape:groupmode="layer"
     id="layer2"
     inkscape:label="Taso"
     transform="translate(0,16)"
     style="display:inline">
    <path
       inkscape:connector-curvature="0"
       id="path4433"
       d="M 60.313551,-8.3523788 C 56.047318,-8.1475699 52.361735,-3.8155904 52.258942,0.29611838 44.040981,-3.3779596 34.240502,-3.6916542 28.057997,0.6672988 27.942204,-5.2725979 25.357149,-7.7337984 20.188978,-8.2410246 15.020807,-8.7482509 9.0421869,-3.5711994 8.5339219,2.1891374 7.9530475,8.7723816 15.623462,10.317982 15.623462,10.317982 8.0720967,14.190477 9.5549806,24.188643 9.8330524,31.289659 10.321547,43.764167 21.418213,47.163056 21.450991,47.17617 c 0,0 0.194416,5.380979 4.454161,8.091727 4.259745,2.710746 23.830557,3.877474 28.283927,0.779478 C 58.64245,52.949377 57.641054,47.73294 57.641054,47.73294 66.970872,46.460693 72.165839,37.754723 72.376905,30.287474 72.587352,22.842083 72.969209,12.318506 64.062471,8.8332619 69.997399,8.4325231 71.766626,4.7756658 70.855067,-0.85453982 70.251642,-4.5815638 64.083377,-8.5333565 60.313551,-8.3523788 z m -42.871306,6.0873549 c 2.77312,-0.1280672 6.616155,2.86881868 6.458535,4.6026327 0,0 -7.217255,5.2336404 -7.757665,5.2336404 -5.223965,-1.4410929 -2.516462,-8.31549119 0.18559,-9.5764472 0.337756,-0.1576206 0.71738,-0.2415313 1.11354,-0.2598259 z m 44.0962,0.4454155 c 2.882189,-0.1801357 5.578608,0.5588821 5.938883,3.0807954 0.360273,2.5219145 -1.969367,6.1190187 -4.49128,5.9388818 -0.720547,-0.1801369 -7.052422,-5.0480496 -7.052422,-5.0480496 0.540409,-1.62123106 2.722632,-3.7914907 5.604819,-3.9716276 z M 30.693376,10.800516 c 2.076172,-0.08224 4.052471,0.561848 4.899578,1.893019 1.355375,2.129873 1.169783,8.093651 -0.18559,9.836273 -1.355374,1.742625 -7.173735,2.707693 -8.722733,0.965069 -1.548998,-1.742624 -2.533193,-10.351343 0.371179,-11.803529 1.089139,-0.544569 2.391863,-0.84148 3.637566,-0.890832 z m 17.037168,0.334062 c 2.135722,0.06523 4.488224,0.950824 5.456349,2.524026 1.548996,2.517123 1.013276,8.501949 -0.148473,10.244571 -1.161748,1.742624 -8.006401,1.164806 -9.168149,-0.965068 -1.161749,-2.129872 -1.402338,-9.608775 0.631007,-11.061168 0.762504,-0.544647 1.947835,-0.781506 3.229266,-0.742361 z M 36.298196,23.977412 c 0.0133,-2.09e-4 0.02382,-2.09e-4 0.03711,0 0.839164,-0.136044 1.670981,0.775827 1.447602,1.596073 -0.164695,0.658777 -0.589842,1.155383 -1.039305,1.484721 -0.449463,0.329337 -0.959821,0.515792 -1.48472,0.705243 -1.049796,0.378899 -2.231224,0.637196 -3.414857,0.890832 -1.183631,0.253635 -2.362155,0.511221 -3.19215,0.816596 -0.829994,0.305375 -1.14287,0.685084 -1.150658,0.705242 -0.447838,1.164378 -1.098058,3.156241 -1.299131,5.122286 -0.201074,1.966048 0.07491,3.805435 0.890832,4.825342 0.129143,0.161426 1.590864,1.038819 3.600448,1.596075 2.009585,0.557256 4.595003,1.01423 7.238012,1.262013 2.643009,0.247781 5.371653,0.286985 7.646312,0.03711 2.274658,-0.249869 4.067841,-0.859657 4.862459,-1.521839 2.030063,-1.691719 2.622783,-3.574154 2.561144,-5.382113 -0.06163,-1.807959 -0.919492,-3.52506 -1.521839,-4.194335 -0.378999,-0.42111 -2.406059,-1.242231 -4.454162,-2.041491 -1.024052,-0.39963 -2.049534,-0.834329 -2.969441,-1.447602 -0.919909,-0.613271 -1.754212,-1.404297 -2.115727,-2.561143 -0.209196,-0.637226 0.179291,-1.424239 0.816596,-1.633192 0.637306,-0.208953 1.387366,0.17921 1.596075,0.816596 0.122549,0.392152 0.435229,0.797432 1.076423,1.224894 0.641193,0.427461 1.563422,0.850025 2.524024,1.224895 1.921205,0.74974 4.055607,1.194477 5.41923,2.709615 1.140276,1.266972 2.032141,3.375742 2.115727,5.827528 0.08358,2.451788 -0.797924,5.279944 -3.414856,7.460721 -1.52888,1.274066 -3.718272,1.802061 -6.235828,2.078608 -2.517553,0.27655 -5.350359,0.223367 -8.128844,-0.03711 -2.778484,-0.260481 -5.518793,-0.762822 -7.720547,-1.373366 -2.201754,-0.610543 -3.866971,-1.159031 -4.899578,-2.449789 -1.507569,-1.884467 -1.60795,-4.350425 -1.373366,-6.644124 0.234585,-2.293699 0.853079,-4.474784 1.373366,-5.827529 0.476306,-1.238396 1.578346,-1.750278 2.672497,-2.152845 1.09415,-0.402564 2.33794,-0.67332 3.526211,-0.92795 1.188272,-0.254629 2.340373,-0.498844 3.117913,-0.779478 0.38877,-0.140317 0.674597,-0.304247 0.816596,-0.408299 0.0437,-0.03202 0.05946,-0.02224 0.07424,-0.03711 -2.07e-4,-0.0133 -2.07e-4,-0.02381 0,-0.03711 0.0036,-0.0041 0.03605,0.0015 0.03711,0 0.119769,-0.449152 0.511231,-0.827399 0.965069,-0.927951 z m -8.462907,21.045913 c 8.110392,2.558805 15.562727,2.493668 22.641989,0.927951 0,0 -0.576689,4.898444 -3.674684,7.609193 C 43.704598,56.271216 32.658708,54.88676 30.916085,53.33776 29.17346,51.788762 27.835289,48.702197 27.835289,45.023325 z"
       style="fill:#deaa87;fill-opacity:1;stroke:#deaa87;stroke-width:4;stroke-miterlimit:4;stroke-dasharray:none;filter:url(#filter4436)" />
  </g>
  <g
     inkscape:groupmode="layer"
     id="layer3"
     inkscape:label="Taso#1"
     style="display:inline">
    <path
       transform="translate(0,16)"
       style="fill:#b47d36;fill-opacity:1"
       d="M 60.313551,-8.3523788 C 56.047318,-8.1475699 52.361735,-3.8155904 52.258942,0.29611838 44.040981,-3.3779596 34.240502,-3.6916542 28.057997,0.6672988 27.942204,-5.2725979 25.357149,-7.7337984 20.188978,-8.2410246 15.020807,-8.7482509 9.0421869,-3.5711994 8.5339219,2.1891374 7.9530475,8.7723816 15.623462,10.317982 15.623462,10.317982 8.0720967,14.190477 9.5549806,24.188643 9.8330524,31.289659 10.321547,43.764167 21.418213,47.163056 21.450991,47.17617 c 0,0 0.194416,5.380979 4.454161,8.091727 4.259745,2.710746 23.830557,3.877474 28.283927,0.779478 C 58.64245,52.949377 57.641054,47.73294 57.641054,47.73294 66.970872,46.460693 72.165839,37.754723 72.376905,30.287474 72.587352,22.842083 72.969209,12.318506 64.062471,8.8332619 69.997399,8.4325231 71.766626,4.7756658 70.855067,-0.85453982 70.251642,-4.5815638 64.083377,-8.5333565 60.313551,-8.3523788 z m -42.871306,6.0873549 c 2.77312,-0.1280672 6.616155,2.86881868 6.458535,4.6026327 0,0 -7.217255,5.2336404 -7.757665,5.2336404 -5.223965,-1.4410929 -2.516462,-8.31549119 0.18559,-9.5764472 0.337756,-0.1576206 0.71738,-0.2415313 1.11354,-0.2598259 z m 44.0962,0.4454155 c 2.882189,-0.1801357 5.578608,0.5588821 5.938883,3.0807954 0.360273,2.5219145 -1.969367,6.1190187 -4.49128,5.9388818 -0.720547,-0.1801369 -7.052422,-5.0480496 -7.052422,-5.0480496 0.540409,-1.62123106 2.722632,-3.7914907 5.604819,-3.9716276 z M 30.693376,10.800516 c 2.076172,-0.08224 4.052471,0.561848 4.899578,1.893019 1.355375,2.129873 1.169783,8.093651 -0.18559,9.836273 -1.355374,1.742625 -7.173735,2.707693 -8.722733,0.965069 -1.548998,-1.742624 -2.533193,-10.351343 0.371179,-11.803529 1.089139,-0.544569 2.391863,-0.84148 3.637566,-0.890832 z m 17.037168,0.334062 c 2.135722,0.06523 4.488224,0.950824 5.456349,2.524026 1.548996,2.517123 1.013276,8.501949 -0.148473,10.244571 -1.161748,1.742624 -8.006401,1.164806 -9.168149,-0.965068 -1.161749,-2.129872 -1.402338,-9.608775 0.631007,-11.061168 0.762504,-0.544647 1.947835,-0.781506 3.229266,-0.742361 z M 36.298196,23.977412 c 0.0133,-2.09e-4 0.02382,-2.09e-4 0.03711,0 0.839164,-0.136044 1.670981,0.775827 1.447602,1.596073 -0.164695,0.658777 -0.589842,1.155383 -1.039305,1.484721 -0.449463,0.329337 -0.959821,0.515792 -1.48472,0.705243 -1.049796,0.378899 -2.231224,0.637196 -3.414857,0.890832 -1.183631,0.253635 -2.362155,0.511221 -3.19215,0.816596 -0.829994,0.305375 -1.14287,0.685084 -1.150658,0.705242 -0.447838,1.164378 -1.098058,3.156241 -1.299131,5.122286 -0.201074,1.966048 0.07491,3.805435 0.890832,4.825342 0.129143,0.161426 1.590864,1.038819 3.600448,1.596075 2.009585,0.557256 4.595003,1.01423 7.238012,1.262013 2.643009,0.247781 5.371653,0.286985 7.646312,0.03711 2.274658,-0.249869 4.067841,-0.859657 4.862459,-1.521839 2.030063,-1.691719 2.622783,-3.574154 2.561144,-5.382113 -0.06163,-1.807959 -0.919492,-3.52506 -1.521839,-4.194335 -0.378999,-0.42111 -2.406059,-1.242231 -4.454162,-2.041491 -1.024052,-0.39963 -2.049534,-0.834329 -2.969441,-1.447602 -0.919909,-0.613271 -1.754212,-1.404297 -2.115727,-2.561143 -0.209196,-0.637226 0.179291,-1.424239 0.816596,-1.633192 0.637306,-0.208953 1.387366,0.17921 1.596075,0.816596 0.122549,0.392152 0.435229,0.797432 1.076423,1.224894 0.641193,0.427461 1.563422,0.850025 2.524024,1.224895 1.921205,0.74974 4.055607,1.194477 5.41923,2.709615 1.140276,1.266972 2.032141,3.375742 2.115727,5.827528 0.08358,2.451788 -0.797924,5.279944 -3.414856,7.460721 -1.52888,1.274066 -3.718272,1.802061 -6.235828,2.078608 -2.517553,0.27655 -5.350359,0.223367 -8.128844,-0.03711 -2.778484,-0.260481 -5.518793,-0.762822 -7.720547,-1.373366 -2.201754,-0.610543 -3.866971,-1.159031 -4.899578,-2.449789 -1.507569,-1.884467 -1.60795,-4.350425 -1.373366,-6.644124 0.234585,-2.293699 0.853079,-4.474784 1.373366,-5.827529 0.476306,-1.238396 1.578346,-1.750278 2.672497,-2.152845 1.09415,-0.402564 2.33794,-0.67332 3.526211,-0.92795 1.188272,-0.254629 2.340373,-0.498844 3.117913,-0.779478 0.38877,-0.140317 0.674597,-0.304247 0.816596,-0.408299 0.0437,-0.03202 0.05946,-0.02224 0.07424,-0.03711 -2.07e-4,-0.0133 -2.07e-4,-0.02381 0,-0.03711 0.0036,-0.0041 0.03605,0.0015 0.03711,0 0.119769,-0.449152 0.511231,-0.827399 0.965069,-0.927951 z m -8.462907,21.045913 c 8.110392,2.558805 15.562727,2.493668 22.641989,0.927951 0,0 -0.576689,4.898444 -3.674684,7.609193 C 43.704598,56.271216 32.658708,54.88676 30.916085,53.33776 29.17346,51.788762 27.835289,48.702197 27.835289,45.023325 z"
       id="path4353"
       inkscape:connector-curvature="0" />
    <path
       sodipodi:type="arc"
       style="color:#000000;fill:#b47d36;fill-opacity:1;fill-rule:nonzero;stroke:none;stroke-width:1;marker:none;visibility:visible;display:inline;overflow:visible;enable-background:accumulate"
       id="path4440"
       sodipodi:cx="30.295002"
       sodipodi:cy="35.763935"
       sodipodi:rx="1.0723895"
       sodipodi:ry="1.0723895"
       d="m 31.367391,35.763935 a 1.0723895,1.0723895 0 1 1 -2.144778,0 1.0723895,1.0723895 0 1 1 2.144778,0 z"
       transform="matrix(3.4999999,0,0,3.4999999,-75.201306,-89.946028)" />
    <path
       transform="matrix(3.4999999,0,0,3.4999999,-58.043075,-89.946028)"
       d="m 31.367391,35.763935 a 1.0723895,1.0723895 0 1 1 -2.144778,0 1.0723895,1.0723895 0 1 1 2.144778,0 z"
       sodipodi:ry="1.0723895"
       sodipodi:rx="1.0723895"
       sodipodi:cy="35.763935"
       sodipodi:cx="30.295002"
       id="path4459"
       style="color:#000000;fill:#b47d36;fill-opacity:1;fill-rule:nonzero;stroke:none;stroke-width:1;marker:none;visibility:visible;display:inline;overflow:visible;enable-background:accumulate"
       sodipodi:type="arc" />
  </g>
</svg>
